# xmcd CD database file
#
# Track frame offsets:
#	180
#	14648
#	27114
#	36860
#	50658
#	63802
#	78519
#	92299
#	101156
#	109402
#	133607
#	143340
#	160870
#	184762
#	191244
#	203436
#
# Disc length: 2844 seconds
#
# Revision: 0
# Processed by: cddbd v1.5.2PL0 Copyright (c) Steve Scherf et al.
# Submitted via: CDex 1.51
#
DISCID=d20b1a10
DTITLE=Various Artist - Golden Hits Of Jazz
DYEAR=1900
DGENRE=Jazz
TTITLE0=Perry Como - Black Moonlight
TTITLE1=Frank Chacksfield And His Orchestra - Ebb Tide
TTITLE2=Frankie Laine - I Believe
TTITLE3=Edith Piaf - La Vie En Rose
TTITLE4=The Ames Brothers - My Favorite Song
TTITLE5=The Ames Brothers - Sentimental Me
TTITLE6=Dean Martin - That's Amore
TTITLE7=Les Paul - Whispering
TTITLE8=Oscar Peterson - Air Mail Special
TTITLE9=The Oscar Peterson Trio (O.Peterson, R.Brown, B.Kessel) - Check To Cheek
TTITLE10=Rosemary Clooney - Haven't Got A Worry To My Name
TTITLE11=Louis Armstrong - Mahogany Hall Stomp
TTITLE12=Louis Armstrong - Stars Fell On Alabama
TTITLE13=Shirley Temple - In Our Little Wooden Shoes
TTITLE14=Dick Haymes - Love Letters
TTITLE15=Judy Garland - Meet Me In St. Louis
EXTD=
EXTT0=
EXTT1=
EXTT2=
EXTT3=
EXTT4=
EXTT5=
EXTT6=
EXTT7=
EXTT8=
EXTT9=
EXTT10=
EXTT11=
EXTT12=
EXTT13=
EXTT14=
EXTT15=
PLAYORDER=
